HIERARCHY
ROOT Hips
{
	OFFSET	0.00	0.00	0.00
	CHANNELS 6 Xposition Yposition Zposition Zrotation Xrotation Yrotation
	JOINT LeftUpLeg
	{
		OFFSET	 0.126116	-0.065224	 0.014019
		CHANNELS 3 Zrotation Xrotation Yrotation
		JOINT LeftLeg
		{
			OFFSET	 0.000000	 0.569914	 0.000000
			CHANNELS 3 Zrotation Xrotation Yrotation
			JOINT LeftFoot
			{
				OFFSET	 0.000000	 0.544423	 0.000000
				CHANNELS 3 Zrotation Xrotation Yrotation
				JOINT LeftToeBase
				{
					OFFSET	 0.000000	 0.207117	 0.000000
					CHANNELS 3 Zrotation Xrotation Yrotation
					End Site
					{
						OFFSET	 0.000000	 0.207117	 0.000000
					}
				}
			}
		}
	}
	JOINT RightUpLeg
	{
		OFFSET	-0.124023	-0.065224	 0.008373
		CHANNELS 3 Zrotation Xrotation Yrotation
		JOINT RightLeg
		{
			OFFSET	 0.000000	 0.570047	 0.000000
			CHANNELS 3 Zrotation Xrotation Yrotation
			JOINT RightFoot
			{
				OFFSET	 0.000000	 0.544354	 0.000000
				CHANNELS 3 Zrotation Xrotation Yrotation
				JOINT RightToeBase
				{
					OFFSET	 0.000000	 0.207540	 0.000000
					CHANNELS 3 Zrotation Xrotation Yrotation
					End Site
					{
						OFFSET	 0.000000	 0.207540	 0.000000
					}
				}
			}
		}
	}
	JOINT Spine
	{
		OFFSET	 0.000184	 0.117403	 0.007763
		CHANNELS 3 Zrotation Xrotation Yrotation
		JOINT Spine1
		{
			OFFSET	 0.000000	 0.137269	 0.000000
			CHANNELS 3 Zrotation Xrotation Yrotation
			JOINT Spine2
			{
				OFFSET	 0.000000	 0.156879	 0.000000
				CHANNELS 3 Zrotation Xrotation Yrotation
				JOINT LeftShoulder
				{
					OFFSET	 0.080501	 0.160143	 0.002496
					CHANNELS 3 Zrotation Xrotation Yrotation
					JOINT LeftArm
					{
						OFFSET	 0.000000	 0.164363	 0.000000
						CHANNELS 3 Zrotation Xrotation Yrotation
						JOINT LeftForeArm
						{
							OFFSET	 0.000000	 0.364576	 0.000000
							CHANNELS 3 Zrotation Xrotation Yrotation
							JOINT LeftHand
							{
								OFFSET	 0.000000	 0.360812	 0.000000
								CHANNELS 3 Zrotation Xrotation Yrotation
								JOINT LeftHandIndex1
								{
									OFFSET	 0.000000	 0.086006	 0.000000
									CHANNELS 3 Zrotation Xrotation Yrotation
									JOINT LeftHandIndex2
									{
										OFFSET	 0.000000	 0.047237	 0.000000
										CHANNELS 3 Zrotation Xrotation Yrotation
										JOINT LeftHandIndex3
										{
											OFFSET	-0.004284	 0.038165	 0.000551
											CHANNELS 3 Zrotation Xrotation Yrotation
											End Site
											{
												OFFSET	-0.004284	 0.038165	 0.000551
											}
										}
									}
								}
							}
						}
					}
				}
				JOINT Neck
				{
					OFFSET	 0.000000	 0.176489	 0.000000
					CHANNELS 3 Zrotation Xrotation Yrotation
					JOINT Head
					{
						OFFSET	 0.000000	 0.077941	 0.001747
						CHANNELS 3 Zrotation Xrotation Yrotation
						End Site
						{
							OFFSET	 0.000000	 0.077941	 0.001747
						}
					}
				}
				JOINT RightShoulder
				{
					OFFSET	-0.080363	 0.159706	-0.000306
					CHANNELS 3 Zrotation Xrotation Yrotation
					JOINT RightArm
					{
						OFFSET	 0.000000	 0.164196	 0.000000
						CHANNELS 3 Zrotation Xrotation Yrotation
						JOINT RightForeArm
						{
							OFFSET	 0.000000	 0.365611	 0.000000
							CHANNELS 3 Zrotation Xrotation Yrotation
							JOINT RightHand
							{
								OFFSET	 0.000000	 0.360648	 0.000000
								CHANNELS 3 Zrotation Xrotation Yrotation
								JOINT RightHandIndex1
								{
									OFFSET	 0.000000	 0.069977	 0.000000
									CHANNELS 3 Zrotation Xrotation Yrotation
									JOINT RightHandIndex2
									{
										OFFSET	 0.000000	 0.052305	 0.000000
										CHANNELS 3 Zrotation Xrotation Yrotation
										JOINT RightHandIndex3
										{
											OFFSET	 0.009002	 0.042196	 0.000782
											CHANNELS 3 Zrotation Xrotation Yrotation
											End Site
											{
												OFFSET	 0.009002	 0.042196	 0.000782
											}
										}
									}
								}
							}
						}
					}
				}
			}
		}
	}
}
MOTION
Frames:    4
Frame Time: 0.03333334
 0.021461	 1.267613	 0.012190	-0.272813	 3.589772	 178.091700	 179.202600	 4.352643	 0.342845	 3.352216	-16.540610	 3.411074	-4.145893	 69.822970	 5.436101	 1.331492	 28.938720	-2.729976	-177.671900	 5.709469	 2.213910	-5.712988	-18.180560	-7.585462	-3.467413	 71.027420	 2.260382	-1.312042	 28.674770	 2.781586	-0.606606	 3.845254	-5.320772	-1.431936	 5.356479	-2.925948	-0.702707	-2.972667	 7.360175	-113.449300	 4.730928	 92.852220	 12.858320	 56.348530	 34.239150	 13.929790	-0.713677	 0.003360	-18.591930	-19.790080	-33.228030	-6.580301	 5.266122	 0.000000	 0.000000	 0.000000	 0.000000	 0.000000	 0.000000	 0.000000	 3.181304	-0.892783	-0.688778	 3.217333	 0.367198	 2.938137	 114.182400	-4.172171	-88.529290	-10.007480	 53.548470	-46.845870	-19.027950	-0.734883	-0.064618	-4.645236	-15.401830	 4.414508	-0.369880	 10.873130	 0.746433	 11.981670	 9.601770	-2.157272	-8.359320	 3.159339	 0.103672
-0.001167	 1.271063	-0.008665	 0.080432	 3.193125	 178.786100	 178.506800	 3.306013	 0.729152	 3.187829	-15.731180	 2.906358	-3.782257	 70.131740	 6.380169	 1.331492	 28.938720	-2.729976	-178.581300	 3.935541	 2.727817	-5.056799	-16.213940	-6.442620	 0.985185	 70.244540	-1.277294	-1.305359	 28.580640	 2.605016	-0.892965	 3.087528	-6.101443	-1.859597	 4.146206	-3.868964	-1.664996	-3.543350	 7.151680	-113.447100	 5.127141	 93.000290	 6.967352	 53.606700	 37.766410	 15.396830	-0.787097	 0.022569	-16.949520	-18.541210	-37.556720	-6.580301	 5.266122	 0.000000	 0.000000	 0.000000	 0.000000	 0.000000	 0.000000	 0.000000	 3.829079	-0.642153	-0.249862	 3.211554	 0.990903	 3.412382	 114.205900	-4.429670	-88.481550	-51.562270	 11.286940	 45.043610	-94.402730	-2.246401	-2.367416	-27.406090	-22.386810	-9.097247	-0.359781	 10.582450	 0.744568	 11.977790	 9.317316	-2.096066	-8.359142	 3.150339	 0.104224
-0.001183	 1.272335	-0.008694	 0.081040	 3.193563	 178.784300	 178.462800	 3.296568	 1.062489	 3.188226	-15.733110	 2.905460	-3.734080	 69.919400	 6.339957	 1.331492	 28.938720	-2.729976	-178.533100	 3.922596	 2.390348	-5.056502	-16.213050	-6.444099	 0.986497	 70.021200	-1.280461	-1.305359	 28.580650	 2.604851	-0.893159	 3.036323	-6.071030	-1.864825	 4.308819	-3.859324	-1.653221	-3.763721	 7.111329	-113.447000	 5.126797	 93.000210	 5.843356	 53.223440	 38.683430	 16.837300	-0.858698	 0.043241	-17.564530	-18.739340	-37.499250	-6.580301	 5.266122	 0.000000	 0.000000	 0.000000	 0.000000	 0.000000	 0.000000	 0.000000	 3.829647	-0.643458	-0.250039	 3.214928	 0.965154	 3.403409	 114.205800	-4.428998	-88.482040	-51.590540	 11.219410	 44.966370	-94.384710	-2.246448	-2.366694	-27.581960	-22.511240	-9.301276	-0.359781	 10.582440	 0.744568	 11.977790	 9.317312	-2.096066	-8.359142	 3.150337	 0.104224
-0.001197	 1.273782	-0.008734	 0.082512	 3.194507	 178.781100	 178.413900	 3.285128	 1.439879	 3.188858	-15.736060	 2.903843	-3.682739	 69.678730	 6.297706	 1.331492	 28.938720	-2.729976	-178.477600	 3.906250	 2.006360	-5.055739	-16.210750	-6.446805	 0.985590	 69.767100	-1.281435	-1.305361	 28.580650	 2.604544	-0.893716	 2.978984	-6.024603	-1.869331	 4.491710	-3.841709	-1.640694	-4.011851	 7.048622	-113.447100	 5.126144	 93.000080	 4.683622	 52.817370	 39.628280	 18.338690	-0.932766	 0.066731	-18.188210	-18.981370	-37.395860	-6.580301	 5.266122	 0.000000	 0.000000	 0.000000	 0.000000	 0.000000	 0.000000	 0.000000	 3.830708	-0.645891	-0.250369	 3.220267	 0.937180	 3.388008	 114.205600	-4.427702	-88.482990	-51.598200	 11.133020	 44.825920	-94.402670	-2.246409	-2.367463	-27.841310	-22.657450	-9.610967	-0.359781	 10.582440	 0.744568	 11.977790	 9.317307	-2.096064	-8.359142	 3.150334	 0.104224
